<?xml version="1.0" standalone="no"?>
<!DOCTYPE svg PUBLIC "-//W3C//DTD SVG 20010904//EN"
 "http://www.w3.org/TR/2001/REC-SVG-20010904/DTD/svg10.dtd">
<svg version="1.0" xmlns="http://www.w3.org/2000/svg"
 width="73.000000pt" height="60.000000pt" viewBox="0 0 73.000000 60.000000"
 preserveAspectRatio="xMidYMid meet">

<g transform="translate(0.000000,60.000000) scale(0.100000,-0.100000)"
fill="#000000" stroke="none">
<path d="M190 535 c-58 -41 -69 -45 -122 -45 l-58 0 0 -42 c1 -27 12 -63 30
-98 16 -30 29 -49 30 -42 0 7 -11 35 -25 62 -14 27 -25 61 -25 75 0 21 5 25
30 25 l29 0 4 -77 3 -78 2 78 c2 70 4 77 22 77 15 0 20 -7 20 -25 0 -14 10
-33 21 -43 47 -38 70 -69 89 -120 11 -29 20 -59 20 -67 0 -12 16 -15 74 -15
100 0 127 16 173 103 36 67 82 117 109 117 23 0 16 -13 -18 -35 -20 -12 -47
-48 -71 -93 -25 -47 -48 -77 -63 -82 -33 -13 -30 -30 4 -30 31 0 51 17 76 67
26 52 74 101 105 108 27 6 28 8 23 53 -6 55 -10 63 -23 40 -8 -14 -13 -15 -28
-6 -14 9 -28 7 -60 -5 -23 -10 -45 -17 -49 -17 -4 0 -26 36 -47 80 l-39 80
-86 0 c-86 0 -86 0 -150 -45z m168 -43 c3 -72 2 -73 -20 -70 -19 2 -25 12 -32
51 -5 26 -13 47 -17 47 -4 0 -10 -24 -12 -52 -3 -42 -4 -37 -5 25 l-2 78 43
-3 42 -3 3 -73z m73 23 c10 -27 18 -60 18 -72 1 -20 -4 -23 -39 -23 l-40 0 0
76 c0 72 1 75 22 72 16 -2 26 -16 39 -53z m-181 31 c0 -3 -4 -16 -10 -30 -7
-20 -16 -26 -40 -26 -38 0 -38 10 3 37 31 21 47 27 47 19z m6 -123 c-2 -3 -11
-3 -18 -1 -12 2 -11 11 2 53 l15 50 3 -49 c2 -26 1 -50 -2 -53z m234 5 c0 -5
-4 -8 -9 -8 -9 0 -31 54 -31 74 1 11 39 -53 40 -66z m-269 20 c-6 -17 -18 -24
-45 -26 -33 -3 -36 -1 -36 22 0 24 3 26 45 26 42 0 44 -1 36 -22z"/>
<path d="M120 366 c0 -8 9 -18 20 -21 28 -9 66 -62 81 -112 14 -50 31 -58 23
-10 -10 49 -39 112 -65 135 -26 25 -59 29 -59 8z"/>
<path d="M92 307 c-47 -50 -53 -187 -12 -255 15 -24 27 -32 49 -32 37 0 56 26
72 96 14 64 5 132 -24 176 -28 41 -56 46 -85 15z m61 -72 c4 -8 2 -17 -3 -20
-6 -4 -10 0 -10 7 0 10 -2 10 -9 -1 -5 -7 -14 -11 -19 -7 -16 10 -3 36 18 36
10 0 20 -7 23 -15z m-51 -57 c-9 -9 -12 -7 -12 12 0 19 3 21 12 12 9 -9 9 -15
0 -24z m68 22 c0 -5 -5 -10 -11 -10 -5 0 -7 5 -4 10 3 6 8 10 11 10 2 0 4 -4
4 -10z m-30 -30 c0 -5 -4 -10 -10 -10 -5 0 -10 5 -10 10 0 6 5 10 10 10 6 0
10 -4 10 -10z m30 -15 c0 -8 -5 -15 -10 -15 -6 0 -10 -8 -8 -17 2 -13 -4 -18
-22 -18 -18 0 -25 5 -24 18 1 9 -2 17 -7 17 -5 0 -9 5 -9 10 0 18 19 10 25
-11 5 -16 10 -18 21 -8 8 6 14 18 14 25 0 8 5 14 10 14 6 0 10 -7 10 -15z"/>
<path d="M618 313 c-32 -37 -42 -70 -42 -138 -1 -96 26 -150 74 -150 44 0 70
42 77 124 11 119 -58 222 -109 164z m29 -100 c-3 -3 -11 -2 -17 2 -8 5 -7 11
2 22 12 15 13 14 16 -1 2 -10 1 -20 -1 -23z m25 5 c-9 -9 -12 -7 -12 12 0 19
3 21 12 12 9 -9 9 -15 0 -24z m-42 -22 c0 -8 -4 -18 -10 -21 -5 -3 -10 3 -10
14 0 12 5 21 10 21 6 0 10 -6 10 -14z m60 4 c0 -5 -5 -10 -11 -10 -5 0 -7 5
-4 10 3 6 8 10 11 10 2 0 4 -4 4 -10z m-34 -37 c-10 -10 -19 5 -10 18 6 11 8
11 12 0 2 -7 1 -15 -2 -18z m34 -9 c0 -8 -4 -12 -10 -9 -5 3 -10 10 -10 16 0
5 5 9 10 9 6 0 10 -7 10 -16z m-56 -7 c7 -7 15 -19 19 -27 4 -11 6 -10 6 5 1
15 4 16 13 7 9 -9 9 -15 1 -23 -16 -16 -49 -6 -45 14 2 9 -2 17 -8 17 -5 0
-10 5 -10 10 0 14 9 13 24 -3z"/>
</g>
</svg>
