<?xml version="1.0" standalone="no"?>
<!DOCTYPE svg PUBLIC "-//W3C//DTD SVG 20010904//EN"
 "http://www.w3.org/TR/2001/REC-SVG-20010904/DTD/svg10.dtd">
<svg version="1.0" xmlns="http://www.w3.org/2000/svg"
 width="61.000000pt" height="60.000000pt" viewBox="0 0 61.000000 60.000000"
 preserveAspectRatio="xMidYMid meet">

<g transform="translate(0.000000,60.000000) scale(0.100000,-0.100000)"
fill="#000000" stroke="none">
<path d="M361 440 c-12 -17 -19 -35 -16 -40 10 -17 25 -11 25 9 0 10 9 21 20
24 13 3 18 10 14 21 -9 23 -17 20 -43 -14z"/>
<path d="M460 445 c-14 -16 -40 -100 -40 -127 0 -10 5 -18 10 -18 6 0 10 8 10
17 0 15 2 14 15 -3 14 -18 14 -18 15 9 0 15 5 27 10 27 7 0 9 15 5 38 -3 20
-2 30 1 22 4 -8 16 -23 27 -35 20 -20 20 -20 12 0 -4 11 -10 30 -13 43 -6 31
-36 46 -52 27z"/>
<path d="M520 414 c0 -6 9 -19 19 -28 11 -10 17 -23 15 -30 -3 -7 2 -18 9 -25
12 -9 16 -9 20 2 3 7 -10 31 -29 53 -18 21 -33 34 -34 28z"/>
<path d="M270 394 c-11 -12 -10 -13 2 -9 15 6 17 3 58 -92 13 -29 27 -53 32
-53 5 0 4 10 -3 21 -7 14 -7 19 0 15 5 -4 15 3 21 14 6 11 7 20 3 20 -4 0 -19
16 -31 35 -13 18 -34 41 -47 49 -20 13 -25 14 -35 0z"/>
<path d="M137 337 c17 -44 42 -79 29 -42 -4 13 4 8 24 -15 l31 -35 -17 35
c-42 85 -96 131 -67 57z"/>
<path d="M213 358 c-8 -20 -4 -28 30 -58 l40 -35 -27 39 c-27 41 -38 88 -12
54 7 -10 17 -18 21 -18 5 0 0 9 -10 20 -23 26 -30 25 -42 -2z"/>
<path d="M491 329 c-6 -18 -9 -34 -7 -36 2 -2 9 10 15 28 6 18 9 34 7 36 -2 2
-9 -10 -15 -28z"/>
<path d="M52 295 c-23 -24 -42 -48 -42 -54 0 -14 69 -26 81 -14 6 6 9 33 7 61
l-3 51 -43 -44z"/>
<path d="M121 241 c-6 -11 -11 -23 -11 -28 0 -9 61 -35 67 -29 2 2 -7 20 -21
40 -23 35 -25 36 -35 17z"/>
<path d="M240 188 c-24 -39 -25 -49 -6 -42 8 3 17 0 21 -6 13 -21 31 8 27 45
-5 44 -17 44 -42 3z m16 -25 c-10 -10 -19 5 -10 18 6 11 8 11 12 0 2 -7 1 -15
-2 -18z"/>
<path d="M380 188 c-22 -37 -26 -53 -9 -42 6 3 15 1 19 -7 7 -10 11 -10 24 0
9 7 13 18 9 25 -4 6 -6 21 -4 34 4 32 -16 27 -39 -10z m12 -20 c-7 -7 -12 -8
-12 -2 0 14 12 26 19 19 2 -3 -1 -11 -7 -17z"/>
<path d="M305 170 c0 -31 3 -37 20 -37 17 0 20 6 20 37 0 31 -3 38 -20 38 -17
0 -20 -7 -20 -38z"/>
</g>
</svg>
